<svg width="48" height="48" viewBox="0 0 48 48" fill="none" xmlns="http://www.w3.org/2000/svg">
<rect width="48" height="48" rx="8" fill="#E7F1FF"/>
<path d="M10.14 17.7451C11.6588 17.7451 12.89 16.5139 12.89 14.9951C12.89 13.4763 11.6588 12.2451 10.14 12.2451C8.62123 12.2451 7.39001 13.4763 7.39001 14.9951C7.39001 16.5139 8.62123 17.7451 10.14 17.7451Z" fill="#FD9843"/>
<path d="M14.89 12.2551H37.13C39.05 12.2551 40.61 13.4851 40.61 15.0051C40.61 16.5251 39.05 17.7551 37.13 17.7551H14.89V12.2451V12.2551Z" fill="#FD9843"/>
<path d="M10.14 26.2551C11.6588 26.2551 12.89 25.0239 12.89 23.5051C12.89 21.9863 11.6588 20.7551 10.14 20.7551C8.62123 20.7551 7.39001 21.9863 7.39001 23.5051C7.39001 25.0239 8.62123 26.2551 10.14 26.2551Z" fill="#FD9843"/>
<path d="M14.89 20.7551H37.13C39.05 20.7551 40.61 22.0951 40.61 23.7551C40.61 25.4151 39.05 26.7551 37.13 26.7551H14.89V20.7551Z" fill="#FD9843"/>
<path d="M10.14 35.2551C11.6588 35.2551 12.89 34.0239 12.89 32.5051C12.89 30.9863 11.6588 29.7551 10.14 29.7551C8.62123 29.7551 7.39001 30.9863 7.39001 32.5051C7.39001 34.0239 8.62123 35.2551 10.14 35.2551Z" fill="#FD9843"/>
<path d="M14.89 29.7551H37.13C39.05 29.7551 40.61 31.0951 40.61 32.7551C40.61 34.4151 39.05 35.7551 37.13 35.7551H14.89V29.7551Z" fill="#FD9843"/>
</svg>
