<svg width="187" height="35" viewBox="0 0 187 35" fill="none" xmlns="http://www.w3.org/2000/svg">
<g clip-path="url(#clip0_241_5268)">
<path d="M88.45 18.9399H110.69C112.61 18.9399 114.17 20.2799 114.17 21.9399C114.17 23.5999 112.61 24.9399 110.69 24.9399H88.45V18.9399Z" fill="#FD9843"/>
<path d="M88.45 28.3201H110.69C112.61 28.3201 114.17 29.6601 114.17 31.3201C114.17 32.9801 112.61 34.3201 110.69 34.3201H88.45V28.3201Z" fill="#FD9843"/>
<path d="M83.41 15.3101C84.9288 15.3101 86.16 14.0788 86.16 12.5601C86.16 11.0413 84.9288 9.81006 83.41 9.81006C81.8913 9.81006 80.66 11.0413 80.66 12.5601C80.66 14.0788 81.8913 15.3101 83.41 15.3101Z" fill="#FD9843"/>
<path d="M83.41 24.6899C84.9288 24.6899 86.16 23.4587 86.16 21.9399C86.16 20.4212 84.9288 19.1899 83.41 19.1899C81.8913 19.1899 80.66 20.4212 80.66 21.9399C80.66 23.4587 81.8913 24.6899 83.41 24.6899Z" fill="#FD9843"/>
<path d="M83.41 34.0701C84.9288 34.0701 86.16 32.8389 86.16 31.3201C86.16 29.8013 84.9288 28.5701 83.41 28.5701C81.8913 28.5701 80.66 29.8013 80.66 31.3201C80.66 32.8389 81.8913 34.0701 83.41 34.0701Z" fill="#FD9843"/>
<path d="M88.45 9.81005H110.69C112.61 9.81005 114.17 11.04 114.17 12.56C114.17 14.08 112.61 15.31 110.69 15.31H88.45V9.80005V9.81005Z" fill="#FD9843"/>
<path d="M0.27002 34.3201V13.0801C0.27002 11.1601 1.83002 9.6001 3.75002 9.6001C5.67002 9.6001 7.23002 11.1601 7.23002 13.0801V34.3201H0.27002Z" fill="#0D6EFD"/>
<path d="M3.75 7.58008C5.82107 7.58008 7.5 5.90115 7.5 3.83008C7.5 1.75901 5.82107 0.0800781 3.75 0.0800781C1.67893 0.0800781 0 1.75901 0 3.83008C0 5.90115 1.67893 7.58008 3.75 7.58008Z" fill="#0D6EFD"/>
<path d="M12.51 34.3201V9.6001H34.06C36.88 9.6001 38.93 10.3001 40.23 11.6901C41.53 13.0801 42.17 14.9101 42.17 17.1901V34.3301H35.21V18.0001C35.21 16.0801 34.25 15.1201 32.33 15.1201H19.47V34.3201H12.51Z" fill="#0D6EFD"/>
<path d="M59.89 34.32C55.6 34.32 52.26 33.26 49.86 31.15C47.46 29.04 46.26 25.98 46.26 21.98C46.26 17.98 47.46 14.88 49.86 12.76C52.26 10.65 55.6 9.59 59.89 9.59H75.97V15.11H59.89C57.81 15.11 56.22 15.68 55.11 16.81C54.01 17.95 53.45 19.67 53.45 21.97C53.45 24.27 54 25.95 55.11 27.08C56.21 28.22 57.81 28.78 59.89 28.78H76.45V34.3H59.89V34.32ZM70.69 34.32V0H77.65V34.32H70.69Z" fill="#0D6EFD"/>
<path d="M117.01 34.3199L126.32 21.9799L117.01 9.63989H125.17L132.32 19.1899H135.82L143.02 9.63989H151.13L141.87 21.9799L151.13 34.3199H143.02L135.77 24.7199H132.31L125.16 34.3199H117H117.01Z" fill="#0D6EFD"/>
<path d="M160.83 34.3201C158.24 34.3201 156.25 33.6601 154.88 32.3501C153.5 31.0401 152.82 29.1701 152.82 26.7301C152.82 24.2901 153.51 22.4701 154.88 21.1601C156.26 19.8501 158.24 19.1901 160.83 19.1901H179.26V18.0401C179.26 16.0901 178.3 15.1101 176.38 15.1101H156.03V9.59009H178.21C181.12 9.59009 183.19 10.2501 184.4 11.5801C185.62 12.9101 186.22 14.7701 186.22 17.1701V34.3101H160.83V34.3201ZM162.08 28.8001H179.26V24.7201H162.08C161.47 24.7201 161 24.9001 160.66 25.2701C160.32 25.6401 160.16 26.1301 160.16 26.7301C160.16 27.3301 160.33 27.8301 160.66 28.2201C161 28.6001 161.47 28.8001 162.08 28.8001Z" fill="#0D6EFD"/>
</g>
<defs>
<clipPath id="clip0_241_5268">
<rect width="186.22" height="34.32" fill="white"/>
</clipPath>
</defs>
</svg>
